<svg width="20" height="20" viewBox="0 0 20 20" fill="none" xmlns="http://www.w3.org/2000/svg">
<path
    d="M8.42105 17.8947C10.0961 17.8947 11.7025 17.2293 12.887 16.0449C14.0714 14.8604 14.7368 13.254 14.7368 11.5789H16.8421C16.8421 13.8124 15.9549 15.9543 14.3756 17.5335C12.7964 19.1128 10.6545 20 8.42105 20C6.18765 20 4.04572 19.1128 2.46647 17.5335C0.887216 15.9543 0 13.8124 0 11.5789C0 9.34555 0.887216 7.20362 2.46647 5.62436C4.04572 4.04511 6.18765 3.15789 8.42105 3.15789V5.26316C6.746 5.26316 5.13956 5.92857 3.95512 7.11301C2.77068 8.29745 2.10526 9.9039 2.10526 11.5789C2.10526 13.254 2.77068 14.8604 3.95512 16.0449C5.13956 17.2293 6.746 17.8947 8.42105 17.8947ZM16.8421 3.15789H20V5.26316H16.8421V8.42105H14.7368V5.26316H11.5789V3.15789H14.7368V0H16.8421V3.15789Z"
    fill="#777777"
  />
</svg>
