<?xml version="1.0" standalone="no"?>
<!DOCTYPE svg PUBLIC "-//W3C//DTD SVG 20010904//EN"
 "http://www.w3.org/TR/2001/REC-SVG-20010904/DTD/svg10.dtd">
<svg version="1.0" xmlns="http://www.w3.org/2000/svg"
 width="30.000000pt" height="30.000000pt" viewBox="0 0 30.000000 30.000000"
 preserveAspectRatio="xMidYMid meet">

<g transform="translate(0.000000,30.000000) scale(0.100000,-0.100000)"
fill="#777777" stroke="none">
<path d="M226 255 c-11 -8 -30 -15 -42 -15 -33 0 -36 -12 -14 -56 30 -57 27
-67 -17 -62 -31 4 -43 0 -63 -21 -14 -14 -34 -31 -45 -37 -16 -9 -17 -15 -8
-24 9 -10 18 -6 43 19 36 35 67 46 110 38 39 -8 43 2 20 49 -28 53 -26 72 8
80 47 10 54 14 50 26 -6 18 -21 19 -42 3z"/>
</g>
</svg>
